<svg xmlns="http://www.w3.org/2000/svg" xmlns:xlink="http://www.w3.org/1999/xlink" width="500" zoomAndPan="magnify" viewBox="0 0 375 112.499997" height="150" preserveAspectRatio="xMidYMid meet" version="1.0"><defs><g/><clipPath id="07ef93f3a2"><path d="M 59.828125 8.007812 L 127.539062 8.007812 L 127.539062 74.429688 L 59.828125 74.429688 Z M 59.828125 8.007812 " clip-rule="nonzero"/></clipPath><clipPath id="932acf5b12"><path d="M 57 77 L 104 77 L 104 108 L 57 108 Z M 57 77 " clip-rule="nonzero"/></clipPath><clipPath id="2b67440ead"><path d="M 29.609375 29.46875 L 92.703125 6.730469 L 120.90625 84.988281 L 57.816406 107.726562 Z M 29.609375 29.46875 " clip-rule="nonzero"/></clipPath><clipPath id="8a4e6f300f"><path d="M 29.609375 29.46875 L 92.703125 6.730469 L 120.90625 84.988281 L 57.816406 107.726562 Z M 29.609375 29.46875 " clip-rule="nonzero"/></clipPath><clipPath id="9813c0279b"><path d="M 53.253906 95.003906 L 103.011719 77.070312 L 107.601562 89.808594 L 57.84375 107.742188 Z M 53.253906 95.003906 " clip-rule="nonzero"/></clipPath><clipPath id="ae1e467e02"><path d="M 53.253906 95.003906 L 103.011719 77.070312 L 107.59375 89.785156 L 57.835938 107.71875 Z M 53.253906 95.003906 " clip-rule="nonzero"/></clipPath><clipPath id="5101d5890c"><path d="M 42 7 L 94 7 L 94 108 L 42 108 Z M 42 7 " clip-rule="nonzero"/></clipPath><clipPath id="5577baf3df"><path d="M 29.609375 29.46875 L 92.703125 6.730469 L 120.90625 84.988281 L 57.816406 107.726562 Z M 29.609375 29.46875 " clip-rule="nonzero"/></clipPath><clipPath id="c73b6ca9fd"><path d="M 29.609375 29.46875 L 92.703125 6.730469 L 120.90625 84.988281 L 57.816406 107.726562 Z M 29.609375 29.46875 " clip-rule="nonzero"/></clipPath><clipPath id="0b777c52f8"><path d="M 29.632812 29.460938 L 92.726562 6.722656 L 120.898438 84.886719 L 57.804688 107.625 Z M 29.632812 29.460938 " clip-rule="nonzero"/></clipPath><clipPath id="9de7254f61"><path d="M 29.632812 29.460938 L 92.675781 6.742188 L 120.847656 84.90625 L 57.804688 107.625 Z M 29.632812 29.460938 " clip-rule="nonzero"/></clipPath></defs><g clip-path="url(#07ef93f3a2)"><path fill="#ff66c4" d="M 105.824219 38.601562 C 108.457031 36.675781 110.214844 34.289062 111.105469 31.445312 L 111.160156 31.253906 C 112.183594 27.964844 111.914062 25.472656 110.335938 23.757812 C 108.753906 22.046875 106.121094 21.199219 102.449219 21.199219 L 76.535156 21.199219 C 91.292969 18.257812 79.707031 8.027344 90.902344 8.027344 L 107.824219 8.027344 C 111.804688 8.027344 115.195312 8.578125 117.992188 9.683594 C 120.773438 10.789062 122.945312 12.351562 124.5 14.375 C 126.054688 16.398438 126.972656 18.8125 127.253906 21.628906 C 127.539062 24.445312 127.148438 27.5625 126.078125 30.972656 L 126.027344 31.160156 C 124.824219 35.015625 122.246094 40.707031 119.949219 43.617188 C 99.800781 69.03125 75.222656 41.339844 59.828125 74.410156 C 70.929688 27.035156 87.484375 52.058594 105.824219 38.601562 Z M 105.824219 38.601562 " fill-opacity="1" fill-rule="nonzero"/></g><g clip-path="url(#932acf5b12)"><g clip-path="url(#2b67440ead)"><g clip-path="url(#8a4e6f300f)"><g clip-path="url(#9813c0279b)"><g clip-path="url(#ae1e467e02)"><path fill="#ff66c4" d="M 103.136719 77.496094 C 99.554688 78.777344 98.046875 80.726562 96.664062 82.511719 C 95.03125 84.617188 93.570312 86.503906 89.292969 86.925781 C 89.203125 86.9375 88.9375 86.945312 88.539062 86.957031 C 86.296875 87.035156 79.699219 87.257812 76.324219 88.425781 C 74.667969 89 74.191406 89.566406 74.375 90.09375 C 74.773438 91.25 77.796875 92.441406 79.585938 93.140625 C 80.054688 93.324219 80.441406 93.476562 80.691406 93.597656 C 82.453125 94.425781 83.328125 95.492188 83.496094 96.4375 C 83.585938 96.953125 83.476562 97.433594 83.1875 97.828125 C 82.90625 98.214844 82.457031 98.511719 81.871094 98.679688 C 80.414062 99.09375 78.042969 98.6875 75.175781 96.675781 C 74.257812 96.027344 73.359375 95.398438 72.523438 95.054688 C 71.738281 94.734375 71 94.667969 70.347656 95.101562 C 69.320312 95.78125 69.539062 96.894531 69.777344 98.121094 C 70.046875 99.476562 70.335938 100.953125 69.226562 102.300781 C 68.214844 103.523438 67.070312 103.71875 65.890625 103.917969 C 65.003906 104.070312 64.097656 104.222656 63.246094 104.863281 C 62.386719 105.507812 61.480469 106.136719 60.507812 106.644531 C 59.65625 107.089844 58.757812 107.4375 57.800781 107.617188 L 57.933594 107.066406 C 58.753906 106.886719 59.53125 106.578125 60.273438 106.191406 C 61.214844 105.699219 62.101562 105.082031 62.9375 104.453125 C 63.890625 103.742188 64.859375 103.578125 65.804688 103.417969 C 66.890625 103.230469 67.941406 103.054688 68.832031 101.976562 C 69.789062 100.816406 69.519531 99.460938 69.277344 98.222656 C 69 96.820312 68.75 95.546875 70.066406 94.671875 C 70.886719 94.128906 71.777344 94.199219 72.71875 94.582031 C 73.605469 94.945312 74.53125 95.59375 75.472656 96.257812 C 78.191406 98.167969 80.398438 98.566406 81.730469 98.1875 C 82.203125 98.054688 82.558594 97.820312 82.773438 97.527344 C 82.976562 97.246094 83.058594 96.902344 82.992188 96.527344 C 82.851562 95.730469 82.066406 94.808594 80.472656 94.058594 C 80.253906 93.953125 79.867188 93.800781 79.398438 93.617188 C 77.527344 92.882812 74.367188 91.640625 73.890625 90.261719 C 73.609375 89.449219 74.148438 88.640625 76.160156 87.945312 C 79.605469 86.75 86.257812 86.523438 88.519531 86.449219 C 88.902344 86.433594 89.15625 86.425781 89.242188 86.417969 C 93.304688 86.015625 94.699219 84.210938 96.257812 82.203125 C 97.136719 81.066406 98.0625 79.871094 99.515625 78.804688 C 100.589844 78.015625 102.148438 77.339844 103.136719 77.496094 " fill-opacity="1" fill-rule="nonzero"/></g></g></g></g></g><g clip-path="url(#5101d5890c)"><g clip-path="url(#5577baf3df)"><g clip-path="url(#c73b6ca9fd)"><g clip-path="url(#0b777c52f8)"><g clip-path="url(#9de7254f61)"><path fill="#ff66c4" d="M 60.242188 97.691406 C 57.324219 96.191406 56.773438 90.800781 56.5 87.667969 C 56.222656 83.632812 56.28125 79.902344 56.71875 76.957031 C 58.382812 74.910156 65.828125 68.394531 68.195312 55.304688 L 61.957031 61.3125 C 68.953125 51.976562 71.03125 38.371094 80.253906 28.097656 C 80.253906 28.097656 72.632812 31.253906 69.554688 35.613281 C 69.554688 35.613281 72.894531 29.796875 84.40625 23.632812 L 79.054688 23.023438 L 85.539062 21.597656 C 85.539062 21.597656 85.933594 13.253906 93.019531 7.691406 C 93.019531 7.691406 62.03125 11.339844 60.339844 36.726562 C 60.339844 36.726562 60.101562 30.671875 61.054688 25.039062 C 61.054688 25.039062 48.644531 32.753906 48.800781 53.414062 C 48.800781 53.414062 47.636719 45.332031 48.070312 41.386719 C 48.070312 41.386719 42.464844 51.738281 48.078125 66.226562 C 48.078125 66.226562 44.394531 61.992188 43.425781 57.707031 C 43.425781 57.707031 40.027344 69.15625 52 76.488281 C 52.210938 73.695312 53.914062 45.449219 67.109375 31.238281 C 52.90625 52.507812 51.859375 83.230469 57.800781 107.617188 L 60.242188 97.691406 " fill-opacity="1" fill-rule="evenodd"/></g></g></g></g></g><g fill="#ffffff" fill-opacity="1"><g transform="translate(106.875327, 95.259978)"><g><path d="M 3.460938 -15.6875 C 3.320312 -15.121094 3.039062 -14.203125 3.039062 -13.566406 C 3.039062 -13.214844 3.390625 -12.789062 3.390625 -12.367188 C 3.390625 -12.226562 3.320312 -12.15625 3.320312 -12.085938 C 2.402344 -10.953125 2.121094 -8.550781 2.121094 -7.207031 C 2.121094 -6.007812 2.402344 -5.015625 2.402344 -4.027344 C 2.402344 -3.320312 2.261719 -2.757812 2.261719 -2.121094 C 2.261719 0.210938 2.898438 2.613281 4.664062 2.613281 C 7.347656 2.613281 8.621094 -3.535156 8.550781 -3.390625 C 9.824219 -5.652344 9.753906 -8.269531 10.742188 -10.671875 C 12.789062 -15.546875 12.296875 -17.101562 13.496094 -18.867188 C 14.203125 -19.929688 14.558594 -21.128906 15.050781 -22.261719 C 16.394531 -25.582031 20 -31.09375 22.824219 -32.789062 C 22.894531 -32.789062 22.894531 -32.859375 22.96875 -32.859375 C 24.027344 -32.859375 23.179688 -24.308594 26.148438 -24.308594 C 27.207031 -24.308594 26.855469 -26.429688 28.125 -27.347656 C 30.175781 -28.832031 30.742188 -29.890625 30.742188 -32.578125 C 30.742188 -35.121094 29.679688 -38.9375 25.863281 -38.9375 C 23.460938 -38.9375 20.351562 -36.039062 20.070312 -34.910156 C 19.859375 -33.992188 17.878906 -32.222656 16.675781 -30.597656 C 16.75 -31.234375 16.890625 -31.589844 16.890625 -32.011719 C 16.464844 -33.566406 16.253906 -36.109375 14.0625 -36.109375 C 13.285156 -36.109375 12.578125 -35.828125 11.800781 -35.828125 C 11.660156 -35.828125 11.449219 -35.898438 11.308594 -35.898438 C 10.742188 -35.898438 8.902344 -32.367188 8.550781 -31.519531 C 7.421875 -29.042969 5.582031 -26.289062 5.441406 -23.671875 C 5.441406 -22.894531 4.664062 -21.554688 4.664062 -20.351562 C 4.664062 -20 4.664062 -19.714844 4.734375 -19.363281 C 4.167969 -18.796875 3.746094 -16.253906 2.898438 -16.113281 Z M 12.507812 -21.625 L 12.296875 -21.625 L 12.4375 -21.835938 Z M 12.507812 -21.625 "/></g></g></g><g fill="#ffffff" fill-opacity="1"><g transform="translate(137.610602, 95.259978)"><g><path d="M 4.734375 -24.945312 C 4.804688 -24.664062 4.875 -24.378906 4.875 -24.097656 C 4.875 -23.816406 4.734375 -23.886719 4.664062 -23.816406 C 4.59375 -23.886719 4.523438 -24.027344 4.523438 -24.167969 C 4.523438 -24.449219 4.664062 -24.734375 4.804688 -24.945312 C 3.746094 -23.460938 4.027344 -21.199219 3.039062 -20 C 2.121094 -18.867188 2.191406 -15.617188 2.191406 -14.203125 C 2.191406 -13.640625 2.683594 -13.074219 2.683594 -12.578125 C 2.683594 -12.226562 2.332031 -11.800781 2.332031 -11.449219 C 2.332031 -10.953125 2.613281 -10.53125 2.613281 -10.105469 C 2.613281 -9.824219 2.402344 -9.539062 2.402344 -9.328125 C 2.402344 -8.761719 3.179688 -8.199219 3.179688 -7.5625 C 3.179688 -7.207031 3.039062 -6.855469 3.039062 -6.570312 C 3.039062 -6.359375 3.886719 -3.886719 5.089844 -3.25 C 5.371094 -3.109375 5.582031 -2.757812 5.722656 -2.402344 C 7.207031 -0.210938 9.117188 -0.28125 11.871094 0 C 12.296875 -0.28125 12.71875 -0.566406 13.214844 -0.847656 C 13.425781 -0.707031 13.710938 -0.636719 13.921875 -0.636719 C 15.121094 -0.636719 19.785156 -6.359375 20.917969 -6.785156 C 22.117188 -7.207031 23.179688 -10.386719 25.15625 -11.378906 C 25.933594 -11.378906 26.289062 -12.507812 26.289062 -13.074219 C 26.289062 -13.78125 30.105469 -16.960938 30.105469 -16.960938 C 30.8125 -17.453125 32.929688 -18.304688 32.929688 -19.222656 C 32.929688 -19.785156 32.222656 -20 31.800781 -20 C 29.609375 -20 26.640625 -16.605469 25.863281 -15.898438 C 22.191406 -12.648438 18.445312 -9.679688 14.628906 -6.570312 C 13.851562 -5.9375 12.578125 -5.089844 11.519531 -5.089844 C 8.976562 -5.089844 8.761719 -11.023438 8.761719 -14.203125 C 8.761719 -15.335938 8.832031 -17.3125 10.175781 -17.3125 C 11.164062 -17.3125 12.15625 -17.03125 13.144531 -17.03125 C 17.101562 -17.03125 21.128906 -20.707031 21.90625 -22.191406 C 22.261719 -22.894531 22.753906 -23.320312 23.25 -23.816406 C 23.816406 -24.449219 24.097656 -25.582031 24.804688 -25.933594 C 25.511719 -26.429688 25.792969 -27.136719 25.792969 -27.984375 C 25.792969 -28.410156 25.722656 -28.832031 25.722656 -29.328125 C 25.722656 -29.539062 25.792969 -29.820312 25.792969 -30.035156 C 25.792969 -33.851562 19.785156 -36.535156 16.113281 -36.535156 C 14.980469 -36.535156 14.488281 -35.476562 13.566406 -35.121094 C 12.011719 -34.484375 11.09375 -33.074219 10.035156 -32.011719 C 9.539062 -30.457031 7.136719 -29.820312 6.5 -27.84375 C 6.148438 -26.710938 5.441406 -25.792969 4.734375 -24.945312 Z M 11.449219 -21.414062 C 10.316406 -21.554688 9.964844 -21.554688 9.964844 -22.046875 C 9.964844 -23.957031 13.710938 -31.445312 18.375 -31.445312 C 19.785156 -31.445312 20.070312 -29.46875 20.070312 -28.265625 C 20.070312 -23.746094 13.992188 -21.835938 11.449219 -21.414062 Z M 11.449219 -21.414062 "/></g></g></g><g fill="#ffffff" fill-opacity="1"><g transform="translate(164.883739, 95.259978)"><g><path d="M 2.121094 -11.09375 C 2.191406 -9.964844 2.050781 -8.480469 2.542969 -7.492188 C 4.027344 -4.382812 4.238281 0.210938 9.964844 0.210938 C 13.285156 0.210938 19.292969 -5.792969 20.492188 -7.066406 C 21.554688 -8.125 27.207031 -14.0625 27.558594 -14.132812 C 28.335938 -15.828125 31.660156 -17.242188 31.660156 -18.65625 C 31.660156 -19.292969 31.09375 -19.433594 30.457031 -19.433594 C 27.773438 -19.433594 22.191406 -14.417969 19.644531 -11.660156 C 18.019531 -9.894531 11.378906 -5.230469 10.53125 -5.230469 C 8.691406 -5.230469 7.984375 -10.882812 7.984375 -13.496094 C 7.984375 -16.675781 9.398438 -19.433594 10.035156 -22.332031 C 11.941406 -25.792969 15.546875 -30.667969 18.375 -30.667969 C 18.65625 -30.667969 18.867188 -30.527344 18.867188 -30.175781 C 18.796875 -29.398438 18.65625 -28.621094 18.65625 -27.773438 C 18.65625 -26.710938 19.433594 -25.300781 20.492188 -25.300781 C 22.542969 -25.300781 23.460938 -30.667969 23.460938 -32.578125 C 23.460938 -35.40625 15.898438 -36.464844 15.898438 -36.464844 C 15.121094 -36.464844 12.648438 -35.191406 12.15625 -33.851562 C 11.800781 -33 10.175781 -33.566406 9.964844 -32.578125 C 9.753906 -31.589844 8.761719 -31.445312 8.480469 -30.527344 C 8.054688 -29.257812 6.855469 -28.335938 6.148438 -27.066406 C 4.804688 -24.59375 3.179688 -20.777344 3.179688 -19.222656 C 3.179688 -16.535156 2.121094 -13.921875 2.121094 -11.09375 Z M 2.121094 -11.09375 "/></g></g></g><g fill="#ffffff" fill-opacity="1"><g transform="translate(189.471959, 95.259978)"><g><path d="M 2.828125 -16.464844 C 2.828125 -14.910156 3.109375 -13.355469 3.109375 -11.730469 C 3.109375 -9.679688 4.945312 -7.136719 5.582031 -5.722656 C 6.644531 -3.320312 9.679688 -0.707031 12.011719 -0.707031 C 13.640625 -0.707031 16.394531 -1.695312 17.171875 -3.109375 C 17.527344 -4.167969 18.9375 -5.160156 18.9375 -5.9375 C 19.082031 -6.855469 20.28125 -7.84375 20.847656 -9.046875 C 21.199219 -9.679688 20.988281 -10.53125 21.625 -10.953125 C 22.402344 -11.589844 23.109375 -13.710938 23.320312 -14.203125 C 23.671875 -15.6875 25.722656 -17.382812 25.722656 -18.445312 C 25.722656 -19.292969 24.945312 -19.714844 24.027344 -19.714844 C 22.894531 -19.714844 21.90625 -18.867188 21.625 -17.453125 C 20.636719 -12.863281 18.019531 -9.753906 14.980469 -6.148438 C 14.839844 -6.007812 14.699219 -6.007812 14.558594 -6.007812 C 12.71875 -6.007812 12.648438 -13.78125 12.648438 -15.121094 C 12.648438 -15.265625 12.648438 -15.40625 12.71875 -15.476562 C 13.214844 -16.75 12.789062 -18.089844 13.285156 -19.363281 C 13.425781 -21.058594 13.640625 -22.753906 13.640625 -24.523438 C 13.640625 -27.066406 12.367188 -32.296875 10.457031 -32.859375 C 9.398438 -33.144531 8.054688 -33.636719 7.066406 -33.636719 C 4.875 -33.636719 2.828125 -18.230469 2.828125 -16.464844 Z M 8.125 -43.742188 C 8.125 -42.472656 8.621094 -40.28125 10.316406 -40.28125 C 12.15625 -40.28125 13.003906 -42.1875 13.003906 -43.8125 C 13.003906 -45.582031 11.09375 -45.511719 9.46875 -45.863281 C 8.269531 -45.863281 8.125 -44.449219 8.125 -43.742188 Z M 8.125 -43.742188 "/></g></g></g><g fill="#ffffff" fill-opacity="1"><g transform="translate(208.125093, 95.259978)"><g><path d="M 38.019531 -27.84375 C 34.273438 -27.632812 30.882812 -26.148438 27.347656 -24.945312 C 27.136719 -24.875 26.925781 -24.804688 26.710938 -24.804688 C 25.511719 -24.804688 25.300781 -26.289062 25.015625 -27.417969 C 24.238281 -30.035156 21.625 -32.929688 19.644531 -33.636719 C 17.949219 -34.203125 16.394531 -35.6875 14.488281 -35.6875 C 13.285156 -35.6875 12.15625 -35.6875 11.09375 -35.6875 C 6.429688 -35.6875 3.605469 -35.050781 3.605469 -27.703125 C 3.605469 -25.652344 5.582031 -22.753906 5.582031 -21.269531 C 5.582031 -19.644531 4.097656 -16.113281 4.097656 -15.195312 C 4.097656 -13.851562 3.535156 -12.578125 3.535156 -11.164062 C 3.535156 -3.886719 8.550781 -0.140625 8.550781 -0.140625 C 9.964844 0.847656 11.660156 1.128906 13.144531 1.554688 C 14.0625 0.988281 16.605469 -0.496094 17.101562 -0.496094 C 17.171875 -0.496094 17.171875 -0.425781 17.171875 -0.425781 C 22.191406 -5.441406 22.472656 -7.136719 23.460938 -8.410156 C 24.523438 -9.753906 23.320312 -11.941406 24.875 -12.789062 C 25.15625 -13.074219 26.289062 -18.726562 26.289062 -19.152344 C 26.570312 -21.199219 27.066406 -21.625 29.75 -22.96875 C 31.800781 -23.957031 34.0625 -25.085938 36.464844 -25.300781 C 38.726562 -25.511719 39.433594 -26.148438 39.433594 -26.710938 C 39.433594 -27.347656 38.515625 -27.984375 38.160156 -27.984375 C 38.089844 -27.984375 38.019531 -27.914062 38.019531 -27.84375 Z M 22.402344 -17.382812 C 22.191406 -16.113281 22.332031 -14.132812 21.554688 -13.640625 C 20.28125 -12.789062 17.527344 -4.3125 14.0625 -4.3125 C 12.226562 -4.3125 11.308594 -7.207031 11.308594 -8.621094 C 11.308594 -9.46875 11.800781 -10.601562 11.800781 -11.519531 C 11.800781 -11.871094 11.730469 -12.226562 11.730469 -12.578125 C 11.730469 -14.769531 12.226562 -16.890625 13.640625 -17.242188 C 16.394531 -17.242188 18.9375 -18.304688 21.484375 -19.222656 C 22.542969 -19.222656 22.261719 -18.304688 22.402344 -17.382812 Z M 12.15625 -33.285156 C 17.03125 -33.285156 20 -28.621094 21.765625 -24.804688 C 21.976562 -24.378906 21.976562 -23.957031 21.976562 -23.53125 C 21.976562 -21.90625 17.878906 -21.128906 16.042969 -20.917969 C 15.6875 -20.917969 15.121094 -20.988281 15.121094 -21.554688 C 15.121094 -22.191406 16.113281 -23.460938 16.113281 -24.097656 C 16.113281 -25.722656 11.800781 -26.78125 11.378906 -26.925781 C 10.882812 -27.136719 10.53125 -27.207031 10.316406 -27.207031 C 9.824219 -27.207031 9.609375 -26.78125 8.621094 -25.792969 C 8.621094 -25.722656 8.550781 -25.722656 8.480469 -25.722656 C 7.5625 -25.722656 7.5625 -27.207031 7.5625 -27.84375 C 7.5625 -29.890625 8.832031 -32.789062 11.023438 -33.074219 C 11.449219 -33.144531 11.871094 -33.214844 12.15625 -33.285156 Z M 12.15625 -33.285156 "/></g></g></g><g fill="#ffffff" fill-opacity="1"><g transform="translate(239.778888, 95.259978)"><g><path d="M 27.207031 -26.855469 C 27.277344 -26.570312 27.277344 -26.21875 27.277344 -25.933594 C 27.277344 -24.875 26.996094 -23.816406 26.996094 -22.753906 C 26.996094 -22.472656 27.066406 -22.117188 27.066406 -21.835938 C 27.066406 -19.292969 26.359375 -16.535156 26.359375 -13.921875 C 26.359375 -12.863281 26.570312 -11.800781 26.570312 -10.742188 C 26.570312 -9.824219 26.5 -8.761719 26.5 -7.84375 C 26.5 -7.277344 26.710938 -6.785156 26.710938 -6.289062 C 26.710938 -5.722656 26.570312 -5.230469 26.5 -4.734375 C 26.5 -1.058594 27.914062 -0.140625 28.054688 1.273438 C 28.195312 2.261719 30.175781 3.535156 31.660156 3.535156 C 35.898438 3.535156 36.605469 -3.320312 38.515625 -5.652344 C 39.148438 -6.429688 38.796875 -7.703125 39.433594 -8.621094 C 40.5625 -10.246094 41.199219 -12.011719 42.117188 -13.78125 C 43.390625 -15.617188 45.296875 -17.667969 45.933594 -19.433594 C 45.933594 -20.140625 45.226562 -20.140625 44.734375 -20.140625 C 42.753906 -20.140625 41.625 -17.597656 40.847656 -15.972656 C 39.292969 -13.921875 38.089844 -11.660156 36.960938 -9.398438 C 36.039062 -7.5625 33.355469 -1.765625 32.367188 -1.765625 C 31.660156 -1.765625 31.519531 -3.675781 31.519531 -4.59375 C 31.519531 -5.230469 31.660156 -5.867188 31.941406 -6.5 C 32.578125 -7.984375 32.648438 -9.539062 32.71875 -11.164062 C 32.71875 -11.449219 32.648438 -11.800781 32.648438 -12.085938 C 32.648438 -13.851562 33.707031 -15.265625 33.707031 -16.820312 C 33.707031 -17.667969 33.636719 -18.445312 33.636719 -19.292969 C 33.636719 -21.90625 34.769531 -23.25 34.769531 -26.78125 C 34.769531 -31.660156 33.707031 -32.296875 29.398438 -32.296875 C 27.84375 -32.296875 26.925781 -31.023438 25.792969 -30.246094 C 21.199219 -26.996094 17.453125 -22.613281 14.132812 -18.019531 C 13.425781 -17.03125 12.71875 -15.546875 11.660156 -14.980469 C 10.882812 -14.980469 10.742188 -17.101562 10.742188 -19.292969 C 10.742188 -24.945312 11.308594 -27.066406 11.308594 -31.941406 C 11.308594 -34.839844 7.632812 -34.910156 5.652344 -34.910156 C 4.664062 -34.910156 4.097656 -25.15625 3.886719 -22.894531 C 3.746094 -21.414062 3.535156 -19.859375 3.535156 -18.375 C 3.535156 -16.464844 4.523438 -14.910156 4.523438 -12.933594 C 4.523438 -8.832031 8.054688 -6.714844 10.671875 -6.714844 C 15.617188 -6.714844 16.75 -10.742188 18.089844 -14.980469 C 18.375 -15.828125 18.515625 -16.75 19.292969 -17.242188 C 19.363281 -18.089844 20.351562 -18.375 20.492188 -19.222656 C 20.636719 -20.070312 24.664062 -26.855469 27.207031 -26.855469 Z M 27.207031 -26.855469 "/></g></g></g><g fill="#ffffff" fill-opacity="1"><g transform="translate(279.346135, 95.259978)"><g><path d="M 26.429688 -8.480469 C 26.429688 -8.125 26.5 -7.84375 26.5 -7.492188 C 26.359375 -6.289062 26.429688 -5.652344 25.15625 -5.652344 C 25.300781 -5.9375 25.300781 -6.148438 25.652344 -6.148438 C 25.863281 -6.148438 26.078125 -5.9375 26.359375 -5.867188 C 26.078125 -6.359375 26.003906 -6.855469 26.003906 -7.421875 C 26.003906 -8.269531 26.5 -8.761719 27.136719 -8.761719 C 27.347656 -8.761719 27.632812 -8.691406 27.914062 -8.691406 C 28.195312 -8.691406 28.335938 -8.761719 28.335938 -9.046875 C 28.335938 -9.257812 28.265625 -9.46875 28.265625 -9.679688 C 28.265625 -10.882812 30.316406 -12.578125 31.023438 -12.578125 C 31.234375 -12.578125 31.519531 -12.507812 31.730469 -12.507812 C 32.082031 -12.507812 32.367188 -12.648438 32.507812 -12.933594 C 33.355469 -15.050781 38.089844 -15.972656 39.574219 -15.972656 C 39.925781 -15.972656 40.28125 -15.828125 40.703125 -15.828125 C 41.550781 -15.828125 42.964844 -16.820312 42.964844 -17.808594 C 42.964844 -19.082031 40.5625 -19.082031 39.574219 -19.363281 C 38.300781 -18.867188 36.960938 -19.292969 35.6875 -18.65625 C 35.261719 -18.445312 34.839844 -18.375 34.34375 -18.375 C 32.367188 -18.375 33.285156 -19.785156 32.082031 -20 C 31.941406 -20.707031 31.941406 -22.472656 31.375 -22.472656 C 31.164062 -22.472656 30.742188 -22.117188 30.457031 -21.90625 C 29.679688 -22.683594 30.105469 -23.746094 29.75 -24.664062 C 28.265625 -26.148438 27.136719 -26.855469 24.449219 -26.855469 C 19.007812 -26.855469 14.132812 -25.15625 10.671875 -24.238281 C 10.53125 -24.167969 10.386719 -24.167969 10.246094 -24.167969 C 9.824219 -24.167969 9.609375 -24.378906 9.609375 -24.664062 C 9.609375 -25.226562 10.601562 -26.359375 10.882812 -26.996094 C 11.378906 -28.691406 13.285156 -29.257812 13.566406 -30.316406 C 14.488281 -33.707031 16.960938 -33.992188 18.230469 -35.476562 C 19.222656 -36.960938 20.988281 -38.726562 22.96875 -39.007812 C 23.25 -39.078125 23.460938 -39.574219 23.460938 -39.925781 C 23.179688 -42.402344 19.082031 -42.472656 17.597656 -42.753906 C 16.324219 -41.480469 15.121094 -40.847656 14.0625 -39.148438 C 13.285156 -37.878906 11.308594 -37.382812 11.023438 -36.535156 C 10.386719 -34.628906 8.199219 -35.332031 7.703125 -33.425781 C 7.703125 -33.355469 5.371094 -30.882812 4.664062 -30.175781 C 3.675781 -29.257812 2.757812 -28.125 2.683594 -26.570312 C 2.683594 -25.792969 2.121094 -25.085938 2.121094 -24.378906 C 2.121094 -23.886719 2.332031 -23.460938 2.332031 -22.96875 C 2.332031 -22.753906 2.191406 -22.542969 2.191406 -22.332031 C 2.191406 -20.28125 3.886719 -19.082031 6.148438 -18.230469 C 6.644531 -17.949219 6.714844 -16.960938 7.136719 -16.960938 C 10.035156 -16.960938 12.296875 -18.9375 12.296875 -18.9375 C 12.578125 -18.9375 12.933594 -18.65625 13.425781 -18.445312 C 14.910156 -19.433594 15.265625 -19.785156 16.820312 -20.28125 C 19.007812 -20.917969 20.421875 -22.191406 21.339844 -22.191406 C 21.835938 -22.191406 22.261719 -21.835938 22.683594 -21.835938 C 22.96875 -21.835938 23.320312 -21.976562 23.671875 -21.976562 C 24.734375 -21.976562 25.371094 -20.917969 25.371094 -20 C 24.804688 -16.394531 25.085938 -13.496094 22.261719 -12.789062 C 20.421875 -12.367188 20 -9.894531 18.445312 -9.894531 C 17.03125 -9.894531 16.960938 -8.410156 15.546875 -8.199219 C 14.839844 -8.199219 13.921875 -5.722656 11.800781 -5.160156 C 10.175781 -4.734375 10.035156 -3.25 8.832031 -2.542969 C 5.300781 -0.425781 4.027344 5.371094 3.957031 5.9375 C 3.605469 6.996094 2.757812 8.480469 2.757812 8.691406 C 2.757812 9.964844 4.875 13.640625 6.644531 13.640625 C 7.492188 13.640625 7.5625 12.367188 9.117188 12.367188 C 10.8125 12.367188 11.800781 12.296875 13.496094 10.953125 C 13.921875 10.601562 14.34375 10.316406 14.839844 10.175781 C 15.546875 9.964844 15.6875 8.621094 16.605469 8.621094 C 18.445312 8.621094 17.382812 6.570312 18.726562 6.007812 C 19.644531 5.652344 19.292969 4.097656 20.140625 3.957031 C 21.414062 3.535156 21.339844 2.050781 21.339844 0.566406 C 21.058594 0.496094 20.777344 0.425781 20.5625 0.351562 L 20.636719 0.566406 C 20.636719 0.566406 20.492188 0.425781 20.492188 0.425781 C 20.777344 0.496094 20.988281 0.566406 21.269531 0.566406 C 23.039062 -0.425781 24.308594 -1.554688 24.308594 -2.683594 C 24.308594 -2.96875 24.027344 -3.109375 23.816406 -3.109375 C 23.390625 -3.109375 23.179688 -3.039062 22.96875 -3.039062 C 22.472656 -3.039062 22.894531 -4.804688 21.835938 -4.804688 C 21.625 -4.804688 20.351562 -2.542969 20.140625 -2.542969 C 20.140625 -2.542969 20.140625 -2.542969 20.140625 -2.613281 C 20.140625 -1.273438 18.230469 1.058594 17.527344 2.191406 C 16.75 4.238281 16.324219 6.359375 14.34375 6.855469 C 12.578125 7.347656 13.003906 9.609375 11.519531 9.539062 C 11.234375 9.539062 11.023438 9.46875 10.742188 9.46875 C 10.246094 9.46875 9.679688 9.679688 9.117188 9.679688 C 8.621094 9.679688 7.632812 9.46875 7.632812 8.761719 C 7.773438 7.773438 7.632812 6.644531 8.199219 5.722656 C 9.328125 3.957031 10.457031 1.058594 12.085938 0.496094 C 13.566406 -0.351562 14.839844 -2.402344 17.03125 -3.390625 C 19.363281 -4.453125 19.785156 -7.136719 22.542969 -7.136719 C 22.613281 -6.078125 22.96875 -4.167969 23.957031 -4.167969 C 25.933594 -4.167969 27.066406 -5.371094 27.066406 -7.136719 C 27.066406 -7.703125 26.855469 -8.125 26.429688 -8.480469 Z M 26.429688 -8.480469 "/></g></g></g></svg>